<?xml version="1.0" encoding="utf-8"?>
<!-- Generator: Adobe Illustrator 15.0.0, SVG Export Plug-In . SVG Version: 6.00 Build 0)  -->
<!DOCTYPE svg PUBLIC "-//W3C//DTD SVG 1.1//EN" "http://www.w3.org/Graphics/SVG/1.1/DTD/svg11.dtd">
<svg version="1.1" id="Layer_1" xmlns="http://www.w3.org/2000/svg" xmlns:xlink="http://www.w3.org/1999/xlink" x="0px" y="0px"
	 width="915.1px" height="190px" viewBox="0 0 915.1 190" style="enable-background:new 0 0 915.1 190;" xml:space="preserve">
<style type="text/css">
<![CDATA[
	.st0{clip-path:url(#SVGID_2_);}
	.st1{clip-path:url(#SVGID_6_);}
	.st2{opacity:0.15;clip-path:url(#SVGID_4_);}
	.st3{fill:#FFFFFF;}
	.st4{clip-path:url(#SVGID_2_);fill:#FFFFFF;}
	.st5{clip-path:url(#SVGID_13_);fill:url(#SVGID_14_);}
	.st6{clip-path:url(#SVGID_16_);fill:url(#SVGID_17_);}
	.st7{clip-path:url(#SVGID_11_);}
	.st8{clip-path:url(#SVGID_8_);fill:url(#SVGID_9_);}
]]>
</style>
<g>
	<defs>
		<rect id="SVGID_1_" x="-463.8" y="-442.7" width="1920" height="1080"/>
	</defs>
	<clipPath id="SVGID_2_">
		<use xlink:href="#SVGID_1_"  style="overflow:visible;"/>
	</clipPath>
	<path class="st4" d="M157.3,0.2L62.4,95.1l94.9,94.9l94.9-94.9L157.3,0.2z M110.8,116.5L89.5,95.1l21.4-21.4V116.5z M157.3,163
		L157.3,163L130,135.7V81.6l53.9,54.2L157.3,163z M130.6,54.5l26.7-27.2l0,0.1l27.3,27.3v54.1L130.6,54.5z M203.7,116.5V73.8
		l21.4,21.4L203.7,116.5z"/>
	<g class="st0">
		<path class="st3" d="M326.3,59.8v70.4H307V25.1h20.5l38.6,70.7V25.1h19.4v105.1h-20.8L326.3,59.8z"/>
		<path class="st3" d="M423.2,14.1v21.4l-18.6,4.6V19L423.2,14.1z M404.6,130.2V52.3l18.6-4.8v82.6H404.6z"/>
		<path class="st3" d="M464.3,132.1c-9.4,0-20.2-5.7-20.2-21V66.8h-7.7V49.7h7.7V30.5l18.5-4.3v23.5h16.8l-1.5,17.1h-15.3v42.9
			c0,5.7,3,7.9,6.4,7.9c3.1,0,6-0.7,8.9-1.8l3.7,13.7C475.9,131.1,469.8,132.1,464.3,132.1z"/>
	</g>
	<g class="st0">
		<path class="st3" d="M511.5,76.9v53.3H493V51.7l15.3-3.9l2.4,10.6c4.5-6.3,10-10.7,19.9-10.7c2.4,0,5.5,0.4,8.2,1.5l-2.5,16.2
			c-1.8-0.4-3.6-0.6-5.7-0.6C521.3,64.8,514.9,69.5,511.5,76.9z"/>
	</g>
	<g class="st0">
		<path class="st3" d="M546.2,75.9c0-18,8.8-28.1,33.3-28.1c25,0,33.6,10.1,33.6,28.1v27.7c0,18.2-8.6,28.6-33.6,28.6
			c-24.6,0-33.3-10.4-33.3-28.6V75.9z M594.7,77.4c0-8.3-4-12.5-15.2-12.5c-10.4,0-14.9,4.2-14.9,12.5v25.5
			c0,7.9,4.5,12.2,14.9,12.2c11.3,0,15.2-4.2,15.2-12.2V77.4z"/>
	</g>
	<g class="st0">
		<path class="st3" d="M677.3,102.4c0-7.1-2.5-10-23.2-17.4c-22-8-29.2-11.2-29.2-31.4c0-19.9,12.1-30.4,39.9-30.4
			c10,0,22.5,1.3,29.9,3.3l-2.8,17.1c-7.3-1.9-19.4-3-29.3-3c-13.7,0-18.3,3.4-18.3,11.5c0,8.2,3.1,10.9,25.9,18.5
			c21,7.1,26.5,10.7,26.5,31.3c0,19.5-13,30.4-40,30.4c-11.6,0-24.9-1.5-32.8-3.1l2.2-17.1c7.4,1,19.9,2.8,31.3,2.8
			C672.3,114.7,677.3,111.1,677.3,102.4z"/>
	</g>
	<g class="st0">
		<path class="st3" d="M743.7,132.1c-25.3,0-34.8-10.3-34.8-28.7V75.1c0-17.6,8.8-27.4,33-27.4c23.4,0,31.9,9.8,31.9,27.4v22.3
			h-46.4v5.7c0,7.6,4.5,11.9,16.4,11.9c9.2,0,19.5-0.9,26.1-2.7l2.8,16.5C765.2,130.9,753.7,132.1,743.7,132.1z M727.4,80.3h28v-4.5
			c0-7.3-3.6-11-13.4-11c-10.9,0-14.6,3.6-14.6,11V80.3z"/>
		<path class="st3" d="M791.4,130.2V19.4l18.5-4.9v115.7H791.4z"/>
		<path class="st3" d="M829.2,130.2V19.4l18.5-4.9v115.7H829.2z"/>
	</g>
	<g class="st0">
		<path class="st3" d="M311.7,155.7v26.8h-3v-26.8H311.7z"/>
		<path class="st3" d="M325.2,160.9v21.7h-3v-26.8h3.2l12.5,21.7v-21.7h3v26.8h-3.3L325.2,160.9z"/>
		<path class="st3" d="M357.5,158.4h-8.3v-2.7h19.5v2.7h-8.2v24.1h-3V158.4z"/>
		<path class="st3" d="M377,155.7h16.3v2.7H380v9.2h11.3v2.7H380v9.5h13.8v2.7H377V155.7z"/>
		<path class="st3" d="M412.1,183c-6.7,0-9.1-3-9.1-8.2v-11.4c0-5.2,2.4-8.2,8.7-8.2c3.2,0,6.9,0.3,9,0.8l-0.5,2.6
			c-2.1-0.4-5.5-0.8-8.5-0.8c-4.1,0-5.7,2.1-5.7,5.7v10.8c0,4,1.7,5.8,6.1,5.9c2,0,4.2-0.3,5.9-0.6V171h-5.6v-2.7h8.7v13.8
			C418.8,182.7,415.2,183,412.1,183z"/>
		<path class="st3" d="M431.5,182.5v-26.8h9.7c5.2,0,7.3,2.2,7.3,6.3v3c0,2.9-1.1,5.3-4,6.3l5.1,11.1h-3.3l-4.9-10.6
			c0,0-0.1,0-0.2,0h-6.7v10.6H431.5z M434.5,158.4v10.8h6.6c3.2,0,4.2-1.5,4.2-4.1v-3c0-2.4-1.3-3.7-4.5-3.7H434.5z"/>
		<path class="st3" d="M474.4,174.9h-10.9l-2.8,7.6h-3l9.8-26.8h3.1l9.8,26.8h-3.2L474.4,174.9z M469,159.8l-4.5,12.4h9L469,159.8z"
			/>
		<path class="st3" d="M490.7,158.4h-8.3v-2.7h19.5v2.7h-8.2v24.1h-3V158.4z"/>
		<path class="st3" d="M510.2,155.7h16.3v2.7h-13.3v9.2h11.3v2.7h-11.3v9.5H527v2.7h-16.8V155.7z"/>
		<path class="st3" d="M536.6,155.7h10.1c6.3,0,8.7,2.9,8.7,8.1v10.8c0,5.1-2.4,8-8.7,8h-10.1V155.7z M539.6,158.4v21.4h7
			c4,0,5.7-1.8,5.7-5.6V164c0-3.6-1.7-5.6-5.7-5.6H539.6z"/>
		<path class="st3" d="M581.6,155.7h16.3v2.7h-13.3v9.2h11.3v2.7h-11.3v9.5h13.8v2.7h-16.8V155.7z"/>
		<path class="st3" d="M606.8,170.3h11.2v2.7h-11.2V170.3z"/>
		<path class="st3" d="M635.6,157.9c-4.1,0-5.7,2.1-5.7,5.7v10.8c0,4.1,1.6,5.9,5.7,5.9c2.9,0,6.2-0.3,8.2-0.7l0.5,2.7
			c-2.1,0.5-5.7,0.8-8.7,0.8c-6.4,0-8.7-3-8.7-8.2v-11.4c0-5.2,2.4-8.2,8.7-8.2c3,0,6.6,0.3,8.7,0.8l-0.5,2.6
			C641.8,158.3,638.4,157.9,635.6,157.9z"/>
		<path class="st3" d="M653.1,174.9v-11.6c0-5.2,2.6-8.1,9.5-8.1c6.8,0,9.3,3,9.3,8.1v11.6c0,5.2-2.5,8.1-9.3,8.1
			C655.7,183,653.1,180.1,653.1,174.9z M668.8,163.7c0-3.7-1.7-5.8-6.3-5.8c-4.6,0-6.4,2.1-6.4,5.8v10.8c0,3.7,1.8,5.8,6.4,5.8
			c4.6,0,6.3-2.1,6.3-5.8V163.7z"/>
		<path class="st3" d="M685,161.3v21.2h-3v-26.8h3.1l9.4,17.9l9.5-17.9h3.1v26.8h-3v-21.4l-8.1,15.1H693L685,161.3z"/>
		<path class="st3" d="M720.6,161.3v21.2h-3v-26.8h3.1l9.4,17.9l9.5-17.9h3.1v26.8h-3v-21.4l-8.1,15.1h-2.9L720.6,161.3z"/>
		<path class="st3" d="M753.1,155.7h16.3v2.7h-13.3v9.2h11.3v2.7h-11.3v9.5H770v2.7h-16.8V155.7z"/>
		<path class="st3" d="M779.5,182.5v-26.8h9.7c5.2,0,7.3,2.2,7.3,6.3v3c0,2.9-1.1,5.3-4,6.3l5.1,11.1h-3.3l-4.9-10.6
			c0,0-0.1,0-0.2,0h-6.7v10.6H779.5z M782.6,158.4v10.8h6.6c3.2,0,4.2-1.5,4.2-4.1v-3c0-2.4-1.3-3.7-4.5-3.7H782.6z"/>
		<path class="st3" d="M815.7,157.9c-4.1,0-5.7,2.1-5.7,5.7v10.8c0,4.1,1.6,5.9,5.7,5.9c2.9,0,6.2-0.3,8.2-0.7l0.5,2.7
			c-2.1,0.5-5.7,0.8-8.7,0.8c-6.4,0-8.7-3-8.7-8.2v-11.4c0-5.2,2.4-8.2,8.7-8.2c3,0,6.6,0.3,8.7,0.8l-0.5,2.6
			C821.9,158.3,818.6,157.9,815.7,157.9z"/>
		<path class="st3" d="M833.8,155.7h16.3v2.7h-13.3v9.2h11.3v2.7h-11.3v9.5h13.8v2.7h-16.8V155.7z"/>
	</g>
	<g class="st0">
		<defs>
			<rect id="SVGID_3_" x="-463.8" y="-442.7" width="1920" height="1080"/>
		</defs>
		<clipPath id="SVGID_4_">
			<use xlink:href="#SVGID_3_"  style="overflow:visible;"/>
		</clipPath>
		<g class="st2">
			<g>
				<defs>
					<rect id="SVGID_5_" x="103" y="0.2" width="108.5" height="189.9"/>
				</defs>
				<clipPath id="SVGID_6_">
					<use xlink:href="#SVGID_5_"  style="overflow:visible;"/>
				</clipPath>
				<g class="st1">
					<defs>
						<polygon id="SVGID_7_" points="171.1,95.1 130.6,54.5 157.3,27.3 157.3,27.3 184.5,54.6 198.1,41 157.3,0.2 103,54.5 
							183.9,135.8 157.3,163 157.3,162.9 130,135.7 116.4,149.3 157.3,190.1 211.5,135.8 						"/>
					</defs>
					<clipPath id="SVGID_8_">
						<use xlink:href="#SVGID_7_"  style="overflow:visible;"/>
					</clipPath>
					
						<linearGradient id="SVGID_9_" gradientUnits="userSpaceOnUse" x1="-463.77" y1="637.3311" x2="-462.77" y2="637.3311" gradientTransform="matrix(0 189.8515 189.8515 0 -120841.0391 88047.6484)">
						<stop  offset="0" style="stop-color:#FFFFFF"/>
						<stop  offset="1" style="stop-color:#231F20"/>
					</linearGradient>
					<rect x="103" y="0.2" class="st8" width="108.5" height="189.9"/>
				</g>
			</g>
		</g>
		<g class="st2">
			<g>
				<defs>
					<rect id="SVGID_10_" x="62.4" y="41" width="189.9" height="108.2"/>
				</defs>
				<clipPath id="SVGID_11_">
					<use xlink:href="#SVGID_10_"  style="overflow:visible;"/>
				</clipPath>
				<g class="st7">
					<defs>
						<path id="SVGID_12_" d="M130,135.7V95.1V81.6l-27-27.1L62.4,95.1l54.1,54.1L130,135.7z M110.8,95.1v21.4L89.5,95.1l21.4-21.4
							V95.1z"/>
					</defs>
					<clipPath id="SVGID_13_">
						<use xlink:href="#SVGID_12_"  style="overflow:visible;"/>
					</clipPath>
					
						<linearGradient id="SVGID_14_" gradientUnits="userSpaceOnUse" x1="-463.77" y1="637.3311" x2="-462.77" y2="637.3311" gradientTransform="matrix(0 -94.7935 -94.7935 0 60510.9883 -43813.0977)">
						<stop  offset="0" style="stop-color:#FFFFFF"/>
						<stop  offset="1" style="stop-color:#231F20"/>
					</linearGradient>
					<rect x="62.4" y="54.5" class="st5" width="67.7" height="94.8"/>
				</g>
				<g class="st7">
					<defs>
						<path id="SVGID_15_" d="M198.1,41l-13.6,13.6v40.5v13.5l27,27.1l40.7-40.7L198.1,41z M203.7,116.5V95.1V73.8l21.4,21.4
							L203.7,116.5z"/>
					</defs>
					<clipPath id="SVGID_16_">
						<use xlink:href="#SVGID_15_"  style="overflow:visible;"/>
					</clipPath>
					
						<linearGradient id="SVGID_17_" gradientUnits="userSpaceOnUse" x1="-463.77" y1="637.333" x2="-462.77" y2="637.333" gradientTransform="matrix(0 -94.7935 -94.7935 0 60633.1758 -43826.5352)">
						<stop  offset="0" style="stop-color:#FFFFFF"/>
						<stop  offset="1" style="stop-color:#231F20"/>
					</linearGradient>
					<rect x="184.5" y="41" class="st6" width="67.7" height="94.8"/>
				</g>
			</g>
		</g>
	</g>
</g>
</svg>
